<svg xmlns="http://www.w3.org/2000/svg" version="1.1" xmlns:xlink="http://www.w3.org/1999/xlink" xmlns:svgjs="http://svgjs.dev/svgjs" width="1500" height="1500" viewBox="0 0 1500 1500"><rect width="1500" height="1500" fill="#ffffff"></rect><g transform="matrix(0.6666666666666666,0,0,0.6666666666666666,249.39393939393938,438.5856950067477)"><svg viewBox="0 0 396 247" data-background-color="#fafafa" preserveAspectRatio="xMidYMid meet" height="935" width="1500" xmlns="http://www.w3.org/2000/svg" xmlns:xlink="http://www.w3.org/1999/xlink"><g id="tight-bounds" transform="matrix(1,0,0,1,0.2400000000000091,-0.09999999999999432)"><svg viewBox="0 0 395.52 247.2" height="247.2" width="395.52"><g><svg></svg></g><g><svg viewBox="0 0 395.52 247.2" height="247.2" width="395.52"><mask id="d57821d3-3b6f-4141-8617-3972431450bb"><rect width="640" height="400" fill="white"></rect><g transform="matrix(1,0,0,1,42.93664961364479,37.08)"><svg viewBox="0 0 309.6467007727104 173.04" height="173.04" width="309.6467007727104"><g><svg viewBox="0 0 309.6467007727104 173.04" height="173.04" width="309.6467007727104"><g><svg viewBox="0 0 316.416 176.82289042113837" height="173.04" width="309.6467007727104"><g><svg viewBox="0 0 316.416 176.82289042113837" height="176.82289042113837" width="316.416"><g id="SvgjsG1003"><svg viewBox="0 0 316.416 176.82289042113837" height="176.82289042113837" width="316.416" id="SvgjsSvg1002"><g><svg viewBox="0 0 316.416 102.02970234986945" height="102.02970234986945" width="316.416"><g transform="matrix(1,0,0,1,0,0)"><svg width="316.416" viewBox="-0.1499999999999999 -37.7 154.19 50.400000000000006" height="102.02970234986945" data-palette-color="#130912"><path d="M22.35-33.7L22.35-30.15 7.9-30.15 7.9-18.2 20.6-18.2 20.6-14.65 7.9-14.65 7.9 0 3.85 0 3.85-33.7 22.35-33.7ZM38.4 0.45L38.4 0.45Q32.95 0.45 29.77-3.23 26.6-6.9 26.6-12.5L26.6-12.5Q26.6-18.15 29.87-21.93 33.15-25.7 38.4-25.7L38.4-25.7Q44.15-25.7 47.27-22 50.4-18.3 50.4-12.6L50.4-12.6Q50.4-6.95 47.2-3.25 44 0.45 38.4 0.45ZM38.4-22.2L38.4-22.2Q34.8-22.2 32.75-19.4 30.7-16.6 30.7-12.55L30.7-12.55Q30.7-8.6 32.8-5.83 34.9-3.05 38.4-3.05L38.4-3.05Q42.2-3.05 44.25-5.78 46.3-8.5 46.3-12.55L46.3-12.55Q46.3-16.75 44.35-19.48 42.4-22.2 38.4-22.2ZM56.2-25.35L60.09-25.35 60.09-20.9Q62.09-25.6 67-25.6L67-25.6Q67.9-25.6 68.4-25.5L68.4-25.5 68.4-21.6Q67.34-21.95 66.25-21.95L66.25-21.95Q63.59-21.95 61.84-19.5 60.09-17.05 60.09-13.85L60.09-13.85 60.09 0 56.15 0 56.2-25.35ZM79.49-0.65L79.49-0.65 69.24-25.35 73.69-25.35 76.99-17 81.44-5.5Q81.84-6.8 85.44-17L85.44-17 88.39-25.35 92.64-25.35 83.49-0.65Q81.54 4.5 78.87 6.6 76.19 8.7 72.74 8.7L72.74 8.7Q71.44 8.7 70.64 8.45L70.64 8.45 70.64 4.9Q71.39 5.1 72.34 5.1L72.34 5.1Q77.39 5.1 79.49-0.65ZM107.44 0.45L107.44 0.45Q101.99 0.45 98.82-3.23 95.64-6.9 95.64-12.5L95.64-12.5Q95.64-18.15 98.92-21.93 102.19-25.7 107.44-25.7L107.44-25.7Q113.19-25.7 116.32-22 119.44-18.3 119.44-12.6L119.44-12.6Q119.44-6.95 116.24-3.25 113.04 0.45 107.44 0.45ZM107.44-22.2L107.44-22.2Q103.84-22.2 101.79-19.4 99.74-16.6 99.74-12.55L99.74-12.55Q99.74-8.6 101.84-5.83 103.94-3.05 107.44-3.05L107.44-3.05Q111.24-3.05 113.29-5.78 115.34-8.5 115.34-12.55L115.34-12.55Q115.34-16.75 113.39-19.48 111.44-22.2 107.44-22.2ZM145.99-12.7L145.99-12.7 145.99-33.7 150.04-33.7 150.04-12.8Q150.04-6.3 146.76-2.95 143.49 0.4 137.64 0.4L137.64 0.4Q131.89 0.4 128.64-2.88 125.39-6.15 125.39-12.4L125.39-12.4 125.39-33.7 129.44-33.7 129.44-12.45Q129.44-7.8 131.66-5.6 133.89-3.4 137.64-3.4L137.64-3.4Q145.99-3.4 145.99-12.7Z" opacity="1" transform="matrix(1,0,0,1,0,0)" fill="black" class="wordmark-text-0" id="SvgjsPath1001" stroke-width="7" stroke="black" stroke-linejoin="round"></path></svg></g></svg></g><g transform="matrix(1,0,0,1,176.0665331643045,122.70336214959792)"><svg viewBox="0 0 140.3494668356955 54.11952827154047" height="54.11952827154047" width="140.3494668356955"><g transform="matrix(1,0,0,1,0,0)"><svg width="140.3494668356955" viewBox="-0.16999999999999993 -39.55 139 54.22" height="54.11952827154047" data-palette-color="#130912"><path d="M20.31-19.53L20.31-15.7 8.3-15.7 8.3 0 3.83 0 3.83-35.55 22.34-35.55 22.34-31.69 8.3-31.69 8.3-19.53 20.31-19.53ZM25.83-11.55L25.83-14.43Q25.83-20.19 28.62-23.55 31.42-26.9 36.01-26.9 40.6-26.9 43.39-23.63 46.19-20.36 46.26-14.72L46.26-14.72 46.26-11.94Q46.26-6.2 43.48-2.86 40.7 0.49 36.06 0.49L36.06 0.49Q31.47 0.49 28.7-2.76 25.93-6.01 25.83-11.55L25.83-11.55ZM30.15-14.45L30.15-11.94Q30.15-7.86 31.75-5.53 33.35-3.2 36.06-3.2L36.06-3.2Q41.77-3.2 41.94-11.45L41.94-11.45 41.94-14.43Q41.94-18.48 40.33-20.84 38.72-23.19 36.01-23.19L36.01-23.19Q33.35-23.19 31.75-20.84 30.15-18.48 30.15-14.45L30.15-14.45ZM62.71-26.56L62.74-22.36Q61.84-22.53 60.79-22.53L60.79-22.53Q57.47-22.53 56.15-18.9L56.15-18.9 56.15 0 51.83 0 51.83-26.42 56.03-26.42 56.1-23.73Q57.83-26.9 61.01-26.9L61.01-26.9Q62.03-26.9 62.71-26.56L62.71-26.56ZM69.82-26.42L74.7-7.18 79.51-26.42 84.1-26.42 75.46 3.74Q74.48 7.13 72.7 8.9 70.92 10.67 68.64 10.67L68.64 10.67Q67.77 10.67 66.4 10.28L66.4 10.28 66.4 6.62 67.35 6.71Q69.23 6.71 70.29 5.82 71.35 4.93 72.01 2.73L72.01 2.73 72.87-0.22 65.1-26.42 69.82-26.42ZM87.03-11.55L87.03-14.43Q87.03-20.19 89.82-23.55 92.62-26.9 97.21-26.9 101.8-26.9 104.59-23.63 107.39-20.36 107.46-14.72L107.46-14.72 107.46-11.94Q107.46-6.2 104.68-2.86 101.89 0.49 97.26 0.49L97.26 0.49Q92.67 0.49 89.89-2.76 87.12-6.01 87.03-11.55L87.03-11.55ZM91.35-14.45L91.35-11.94Q91.35-7.86 92.95-5.53 94.55-3.2 97.26-3.2L97.26-3.2Q102.97-3.2 103.14-11.45L103.14-11.45 103.14-14.43Q103.14-18.48 101.53-20.84 99.92-23.19 97.21-23.19L97.21-23.19Q94.55-23.19 92.95-20.84 91.35-18.48 91.35-14.45L91.35-14.45ZM130.33-35.55L134.83-35.55 134.83-10.28Q134.78-5.22 131.9-2.37 129.02 0.49 123.86 0.49L123.86 0.49Q118.59 0.49 115.81-2.31 113.02-5.1 112.98-10.28L112.98-10.28 112.98-35.55 117.42-35.55 117.42-10.45Q117.42-6.86 118.95-5.09 120.47-3.32 123.86-3.32L123.86-3.32Q127.28-3.32 128.81-5.09 130.33-6.86 130.33-10.45L130.33-10.45 130.33-35.55Z" opacity="1" transform="matrix(1,0,0,1,0,0)" fill="black" class="slogan-text-1" id="SvgjsPath1000" stroke-width="7" stroke="black" stroke-linejoin="round"></path></svg></g></svg></g></svg></g></svg></g></svg></g></svg></g></svg></g></mask><g transform="matrix(1,0,0,1,42.93664961364479,37.08)"><svg viewBox="0 0 309.6467007727104 173.04" height="173.04" width="309.6467007727104"><g><svg viewBox="0 0 309.6467007727104 173.04" height="173.04" width="309.6467007727104"><g><svg viewBox="0 0 316.416 176.82289042113837" height="173.04" width="309.6467007727104"><g><svg viewBox="0 0 316.416 176.82289042113837" height="176.82289042113837" width="316.416"><g id="textblocktransform"><svg viewBox="0 0 316.416 176.82289042113837" height="176.82289042113837" width="316.416" id="textblock"><g><svg viewBox="0 0 316.416 102.02970234986945" height="102.02970234986945" width="316.416"><g transform="matrix(1,0,0,1,0,0)"><svg width="316.416" viewBox="-0.1499999999999999 -37.7 154.19 50.400000000000006" height="102.02970234986945" data-palette-color="#130912"><path d="M22.35-33.7L22.35-30.15 7.9-30.15 7.9-18.2 20.6-18.2 20.6-14.65 7.9-14.65 7.9 0 3.85 0 3.85-33.7 22.35-33.7ZM38.4 0.45L38.4 0.45Q32.95 0.45 29.77-3.23 26.6-6.9 26.6-12.5L26.6-12.5Q26.6-18.15 29.87-21.93 33.15-25.7 38.4-25.7L38.4-25.7Q44.15-25.7 47.27-22 50.4-18.3 50.4-12.6L50.4-12.6Q50.4-6.95 47.2-3.25 44 0.45 38.4 0.45ZM38.4-22.2L38.4-22.2Q34.8-22.2 32.75-19.4 30.7-16.6 30.7-12.55L30.7-12.55Q30.7-8.6 32.8-5.83 34.9-3.05 38.4-3.05L38.4-3.05Q42.2-3.05 44.25-5.78 46.3-8.5 46.3-12.55L46.3-12.55Q46.3-16.75 44.35-19.48 42.4-22.2 38.4-22.2ZM56.2-25.35L60.09-25.35 60.09-20.9Q62.09-25.6 67-25.6L67-25.6Q67.9-25.6 68.4-25.5L68.4-25.5 68.4-21.6Q67.34-21.95 66.25-21.95L66.25-21.95Q63.59-21.95 61.84-19.5 60.09-17.05 60.09-13.85L60.09-13.85 60.09 0 56.15 0 56.2-25.35ZM79.49-0.65L79.49-0.65 69.24-25.35 73.69-25.35 76.99-17 81.44-5.5Q81.84-6.8 85.44-17L85.44-17 88.39-25.35 92.64-25.35 83.49-0.65Q81.54 4.5 78.87 6.6 76.19 8.7 72.74 8.7L72.74 8.7Q71.44 8.7 70.64 8.45L70.64 8.45 70.64 4.9Q71.39 5.1 72.34 5.1L72.34 5.1Q77.39 5.1 79.49-0.65ZM107.44 0.45L107.44 0.45Q101.99 0.45 98.82-3.23 95.64-6.9 95.64-12.5L95.64-12.5Q95.64-18.15 98.92-21.93 102.19-25.7 107.44-25.7L107.44-25.7Q113.19-25.7 116.32-22 119.44-18.3 119.44-12.6L119.44-12.6Q119.44-6.95 116.24-3.25 113.04 0.45 107.44 0.45ZM107.44-22.2L107.44-22.2Q103.84-22.2 101.79-19.4 99.74-16.6 99.74-12.55L99.74-12.55Q99.74-8.6 101.84-5.83 103.94-3.05 107.44-3.05L107.44-3.05Q111.24-3.05 113.29-5.78 115.34-8.5 115.34-12.55L115.34-12.55Q115.34-16.75 113.39-19.48 111.44-22.2 107.44-22.2ZM145.99-12.7L145.99-12.7 145.99-33.7 150.04-33.7 150.04-12.8Q150.04-6.3 146.76-2.95 143.49 0.4 137.64 0.4L137.64 0.4Q131.89 0.4 128.64-2.88 125.39-6.15 125.39-12.4L125.39-12.4 125.39-33.7 129.44-33.7 129.44-12.45Q129.44-7.8 131.66-5.6 133.89-3.4 137.64-3.4L137.64-3.4Q145.99-3.4 145.99-12.7Z" opacity="1" transform="matrix(1,0,0,1,0,0)" fill="#000000" class="wordmark-text-0" data-fill-palette-color="primary" id="text-0"></path></svg></g></svg></g><g transform="matrix(1,0,0,1,176.0665331643045,122.70336214959792)"><svg viewBox="0 0 140.3494668356955 54.11952827154047" height="54.11952827154047" width="140.3494668356955"><g transform="matrix(1,0,0,1,0,0)"><svg width="140.3494668356955" viewBox="-0.16999999999999993 -39.55 139 54.22" height="54.11952827154047" data-palette-color="#130912"><path d="M20.31-19.53L20.31-15.7 8.3-15.7 8.3 0 3.83 0 3.83-35.55 22.34-35.55 22.34-31.69 8.3-31.69 8.3-19.53 20.31-19.53ZM25.83-11.55L25.83-14.43Q25.83-20.19 28.62-23.55 31.42-26.9 36.01-26.9 40.6-26.9 43.39-23.63 46.19-20.36 46.26-14.72L46.26-14.72 46.26-11.94Q46.26-6.2 43.48-2.86 40.7 0.49 36.06 0.49L36.06 0.49Q31.47 0.49 28.7-2.76 25.93-6.01 25.83-11.55L25.83-11.55ZM30.15-14.45L30.15-11.94Q30.15-7.86 31.75-5.53 33.35-3.2 36.06-3.2L36.06-3.2Q41.77-3.2 41.94-11.45L41.94-11.45 41.94-14.43Q41.94-18.48 40.33-20.84 38.72-23.19 36.01-23.19L36.01-23.19Q33.35-23.19 31.75-20.84 30.15-18.48 30.15-14.45L30.15-14.45ZM62.71-26.56L62.74-22.36Q61.84-22.53 60.79-22.53L60.79-22.53Q57.47-22.53 56.15-18.9L56.15-18.9 56.15 0 51.83 0 51.83-26.42 56.03-26.42 56.1-23.73Q57.83-26.9 61.01-26.9L61.01-26.9Q62.03-26.9 62.71-26.56L62.71-26.56ZM69.82-26.42L74.7-7.18 79.51-26.42 84.1-26.42 75.46 3.74Q74.48 7.13 72.7 8.9 70.92 10.67 68.64 10.67L68.64 10.67Q67.77 10.67 66.4 10.28L66.4 10.28 66.4 6.62 67.35 6.71Q69.23 6.71 70.29 5.82 71.35 4.93 72.01 2.73L72.01 2.73 72.87-0.22 65.1-26.42 69.82-26.42ZM87.03-11.55L87.03-14.43Q87.03-20.19 89.82-23.55 92.62-26.9 97.21-26.9 101.8-26.9 104.59-23.63 107.39-20.36 107.46-14.72L107.46-14.72 107.46-11.94Q107.46-6.2 104.68-2.86 101.89 0.49 97.26 0.49L97.26 0.49Q92.67 0.49 89.89-2.76 87.12-6.01 87.03-11.55L87.03-11.55ZM91.35-14.45L91.35-11.94Q91.35-7.86 92.95-5.53 94.55-3.2 97.26-3.2L97.26-3.2Q102.97-3.2 103.14-11.45L103.14-11.45 103.14-14.43Q103.14-18.48 101.53-20.84 99.92-23.19 97.21-23.19L97.21-23.19Q94.55-23.19 92.95-20.84 91.35-18.48 91.35-14.45L91.35-14.45ZM130.33-35.55L134.83-35.55 134.83-10.28Q134.78-5.22 131.9-2.37 129.02 0.49 123.86 0.49L123.86 0.49Q118.59 0.49 115.81-2.31 113.02-5.1 112.98-10.28L112.98-10.28 112.98-35.55 117.42-35.55 117.42-10.45Q117.42-6.86 118.95-5.09 120.47-3.32 123.86-3.32L123.86-3.32Q127.28-3.32 128.81-5.09 130.33-6.86 130.33-10.45L130.33-10.45 130.33-35.55Z" opacity="1" transform="matrix(1,0,0,1,0,0)" fill="#000000" class="slogan-text-1" data-fill-palette-color="secondary" id="text-1"></path></svg></g></svg></g></svg></g></svg></g></svg></g></svg></g></svg></g><g mask="url(#d57821d3-3b6f-4141-8617-3972431450bb)"><g transform="matrix(2.945242859826535, 0, 0, 2.945242859826535, 109.18027059158379, 0.9999999999999858)"><svg xmlns="http://www.w3.org/2000/svg" xmlns:xlink="http://www.w3.org/1999/xlink" version="1.1" x="0" y="0" viewBox="22.687386689718803 10.6390550254055 60.15105281581651 83.25289684750868" style="enable-background:new 0 0 100 100;" xml:space="preserve" height="83.25289684750868" width="60.15105281581651" class="icon-none" data-fill-palette-color="accent" id="none"><path d="M23.35 61.549c0.94-0.127 2.636-0.643 3.92-2.639 0.081-0.126 0.208-0.227 0.352-0.27 2.502-0.749 4.204-0.859 3.961-2.619-0.15-1.087-0.435-1.657-0.639-1.94-0.128-0.176-0.166-0.397-0.074-0.595 0.805-1.74 4.36-9.498 4.526-11.215 0.188-1.938 7.688 6.938 10.687 8.562 0.354 0.319 0.589 0.474 0.747 0.539 0.21 0.087 0.337 0.303 0.35 0.53 0.109 1.881 0.653 4.139 1.153 8.306 0.075 0.624 0.313 1.313 0.143 2.041-0.34 1.451-0.335 2.961 0.066 4.396 0.225 0.807 0.496 1.636 0.791 2.251 0.813 1.688 2.188 9.688 0.75 14.562s-1.563 7.125-2.062 8.063-1.375 1.563-0.813 1.75 3.813 1.5 4.563-0.375c0.243-0.608 0.546-1.368 0.843-2.116 0.745-1.874 0.906-3.926 0.48-5.898-0.037-0.169-0.072-0.34-0.105-0.51-0.021-0.107-0.01-0.217 0.029-0.319 1.596-4.131 3.145-8.895 0.85-16.666-0.022-0.075-0.031-0.16-0.024-0.238 0.268-3.178 0.672-5.347 0.992-6.68 0.415-1.728 0.703-3.474 0.86-5.244 0.31-3.479 0.625-8.557 0.075-10.642-0.871-3.298 2.594-8.764 3.858-15.844 0.011-0.061 0.032-0.125 0.061-0.18 1.051-2.031 2.206-1.788 2.206-1.788s5.563 0.813 9.062-2.188c2.94-2.52 5.483-6.891 6.222-8.226 0.129-0.233 0.392-0.347 0.649-0.281 1.205 0.312 4.533 1.056 4.942-0.118 0.432-1.243-1.331-3.466-1.817-4.046-0.082-0.098-0.186-0.159-0.312-0.18-0.734-0.127-3.417-0.369-5.184 2.414-1.864 2.937-5.513 6.945-6.199 7.69-0.077 0.084-0.17 0.135-0.281 0.157-0.772 0.154-4.039 0.724-6.395-0.097-2.314-0.807-5.832-0.873-6.765-0.876-0.154 0-0.297-0.06-0.408-0.167l-2.418-2.34c-0.146-0.142-0.214-0.348-0.168-0.547 0.191-0.832 0.52-3.208-1.303-5.133-2.25-2.375-4.75-2.339-6.313-1.169s-3.375 4.795-2.625 6.357 3.375 4.813 4.75 5.375c0.613 0.251 1.064 0.39 1.376 0.466 0.308 0.076 0.619-0.116 0.703-0.422l0.609-2.232 0.495 1.321c0.044 0.118 0.051 0.242 0.017 0.363-0.187 0.669-0.864 2.932-1.45 2.879-0.662-0.06-5.258-3.997-5.604-4.295-0.015-0.013-0.025-0.021-0.041-0.032-0.38-0.26-5.908-4.07-7.417-6.423-1.563-2.438-3.25-3.438-4.438-3.938-1.075-0.453-5.514-0.956-7.807 0.683-0.357 0.255-0.29 0.824 0.107 1.008 1.439 0.669 3.183 0.525 4.289 0.323 0.46-0.084 0.826 0.384 0.644 0.815l-0.545 1.296c0 0 1.544-0.755 2.395-1.502 0.294-0.258 0.761-0.156 0.923 0.2 1.109 2.428 3.666 6.209 5.744 7.74 2.042 1.505 7.503 4.026 8.994 4.703 0.229 0.104 0.356 0.338 0.323 0.587-0.23 1.692-1.018 8.127-0.18 11.337 0.033 0.125 0.027 0.258-0.015 0.381-0.329 0.962-0.609 1.586-0.834 1.992-0.228 0.411-0.816 0.408-1.031-0.01-0.839-1.632-3.058-5.407-6.069-6.428-3.875-1.313-5.813-1.563-6.875 0.188-1.057 1.742-1.186 5.526-1.434 7.656-0.003 0.022-0.006 0.042-0.011 0.064-0.148 0.658-2.522 11.148-3.43 12.842-0.837 1.563-3.62 3.875-4.071 5.91C22.616 61.249 22.963 61.601 23.35 61.549z" fill="#000000" data-fill-palette-color="accent"></path></svg></g></g></svg></g><defs></defs></svg><rect width="395.52" height="247.2" fill="none" stroke="none" visibility="hidden"></rect></g></svg></g></svg>